<mxfile host="app.diagrams.net" modified="2022-11-06T18:11:39.202Z" agent="5.0 (Windows NT 10.0; Win64; x64) AppleWebKit/537.36 (KHTML, like Gecko) Chrome/103.0.0.0 Safari/537.36" etag="SOVSuCbFWukAetRnYfAJ" version="20.5.1" type="github">
  <diagram id="lclNLxL_KLWgJpRe-Zwd" name="第 1 页">
    <mxGraphModel dx="2031" dy="1089" grid="0" gridSize="10" guides="1" tooltips="1" connect="1" arrows="1" fold="1" page="1" pageScale="1" pageWidth="3300" pageHeight="4681" math="0" shadow="0">
      <root>
        <mxCell id="0" />
        <mxCell id="1" parent="0" />
        <mxCell id="gaqBN02aX4DE-5eGZtPK-1" value="&lt;font style=&quot;font-size: 30px;&quot;&gt;开始&lt;/font&gt;" style="rounded=0;whiteSpace=wrap;html=1;" vertex="1" parent="1">
          <mxGeometry x="780" y="130" width="200" height="80" as="geometry" />
        </mxCell>
        <mxCell id="gaqBN02aX4DE-5eGZtPK-2" value="是否命中" style="rhombus;whiteSpace=wrap;html=1;fontSize=30;" vertex="1" parent="1">
          <mxGeometry x="740" y="420" width="280" height="80" as="geometry" />
        </mxCell>
        <mxCell id="gaqBN02aX4DE-5eGZtPK-3" value="" style="endArrow=classic;html=1;rounded=0;fontSize=30;exitX=0.5;exitY=1;exitDx=0;exitDy=0;" edge="1" parent="1" source="gaqBN02aX4DE-5eGZtPK-2">
          <mxGeometry width="50" height="50" relative="1" as="geometry">
            <mxPoint x="1180" y="610" as="sourcePoint" />
            <mxPoint x="880" y="640" as="targetPoint" />
          </mxGeometry>
        </mxCell>
        <mxCell id="gaqBN02aX4DE-5eGZtPK-5" value="否" style="text;html=1;strokeColor=none;fillColor=none;align=center;verticalAlign=middle;whiteSpace=wrap;rounded=0;fontSize=30;" vertex="1" parent="1">
          <mxGeometry x="890" y="550" width="60" height="30" as="geometry" />
        </mxCell>
        <mxCell id="gaqBN02aX4DE-5eGZtPK-7" value="放入空闲物理块，入LRU队列" style="rounded=0;whiteSpace=wrap;html=1;fontSize=30;" vertex="1" parent="1">
          <mxGeometry x="765" y="860" width="230" height="80" as="geometry" />
        </mxCell>
        <mxCell id="gaqBN02aX4DE-5eGZtPK-8" value="物理块是否满" style="rhombus;whiteSpace=wrap;html=1;fontSize=30;" vertex="1" parent="1">
          <mxGeometry x="740" y="640" width="280" height="80" as="geometry" />
        </mxCell>
        <mxCell id="gaqBN02aX4DE-5eGZtPK-9" value="" style="endArrow=classic;html=1;rounded=0;fontSize=30;exitX=0.5;exitY=1;exitDx=0;exitDy=0;" edge="1" parent="1">
          <mxGeometry width="50" height="50" relative="1" as="geometry">
            <mxPoint x="880" y="720" as="sourcePoint" />
            <mxPoint x="880" y="860" as="targetPoint" />
          </mxGeometry>
        </mxCell>
        <mxCell id="gaqBN02aX4DE-5eGZtPK-10" value="否" style="text;html=1;strokeColor=none;fillColor=none;align=center;verticalAlign=middle;whiteSpace=wrap;rounded=0;fontSize=30;" vertex="1" parent="1">
          <mxGeometry x="890" y="770" width="60" height="30" as="geometry" />
        </mxCell>
        <mxCell id="gaqBN02aX4DE-5eGZtPK-11" value="查找LRU对列中最先入队的页面，将其出队后并移除内存后，让新页入队并放入物理块" style="rounded=0;whiteSpace=wrap;html=1;fontSize=30;" vertex="1" parent="1">
          <mxGeometry x="1220" y="605" width="330" height="150" as="geometry" />
        </mxCell>
        <mxCell id="gaqBN02aX4DE-5eGZtPK-12" value="" style="endArrow=classic;html=1;rounded=0;fontSize=30;exitX=1;exitY=0.5;exitDx=0;exitDy=0;entryX=0;entryY=0.5;entryDx=0;entryDy=0;" edge="1" parent="1" source="gaqBN02aX4DE-5eGZtPK-8" target="gaqBN02aX4DE-5eGZtPK-11">
          <mxGeometry width="50" height="50" relative="1" as="geometry">
            <mxPoint x="1180" y="740" as="sourcePoint" />
            <mxPoint x="1230" y="690" as="targetPoint" />
          </mxGeometry>
        </mxCell>
        <mxCell id="gaqBN02aX4DE-5eGZtPK-13" value="是" style="text;html=1;strokeColor=none;fillColor=none;align=center;verticalAlign=middle;whiteSpace=wrap;rounded=0;fontSize=30;" vertex="1" parent="1">
          <mxGeometry x="1080" y="640" width="60" height="30" as="geometry" />
        </mxCell>
        <mxCell id="gaqBN02aX4DE-5eGZtPK-14" value="" style="endArrow=classic;html=1;rounded=0;fontSize=30;exitX=1;exitY=0.5;exitDx=0;exitDy=0;entryX=0;entryY=0.5;entryDx=0;entryDy=0;" edge="1" parent="1" source="gaqBN02aX4DE-5eGZtPK-2" target="gaqBN02aX4DE-5eGZtPK-15">
          <mxGeometry width="50" height="50" relative="1" as="geometry">
            <mxPoint x="1180" y="630" as="sourcePoint" />
            <mxPoint x="630" y="460" as="targetPoint" />
          </mxGeometry>
        </mxCell>
        <mxCell id="gaqBN02aX4DE-5eGZtPK-15" value="将改页面放到LRU队列队尾" style="rounded=0;whiteSpace=wrap;html=1;fontSize=30;" vertex="1" parent="1">
          <mxGeometry x="1270" y="420" width="230" height="80" as="geometry" />
        </mxCell>
        <mxCell id="gaqBN02aX4DE-5eGZtPK-16" value="是否有新页面" style="rhombus;whiteSpace=wrap;html=1;fontSize=30;" vertex="1" parent="1">
          <mxGeometry x="740" y="270" width="280" height="80" as="geometry" />
        </mxCell>
        <mxCell id="gaqBN02aX4DE-5eGZtPK-17" value="" style="endArrow=classic;html=1;rounded=0;fontSize=30;exitX=0.5;exitY=1;exitDx=0;exitDy=0;" edge="1" parent="1">
          <mxGeometry width="50" height="50" relative="1" as="geometry">
            <mxPoint x="880" y="350" as="sourcePoint" />
            <mxPoint x="880" y="420" as="targetPoint" />
          </mxGeometry>
        </mxCell>
        <mxCell id="gaqBN02aX4DE-5eGZtPK-18" value="是" style="text;html=1;strokeColor=none;fillColor=none;align=center;verticalAlign=middle;whiteSpace=wrap;rounded=0;fontSize=30;" vertex="1" parent="1">
          <mxGeometry x="890" y="370" width="60" height="30" as="geometry" />
        </mxCell>
        <mxCell id="gaqBN02aX4DE-5eGZtPK-19" value="" style="endArrow=classic;html=1;rounded=0;fontSize=30;exitX=1;exitY=0.5;exitDx=0;exitDy=0;entryX=1;entryY=0.5;entryDx=0;entryDy=0;" edge="1" parent="1" source="gaqBN02aX4DE-5eGZtPK-11" target="gaqBN02aX4DE-5eGZtPK-16">
          <mxGeometry width="50" height="50" relative="1" as="geometry">
            <mxPoint x="1230" y="510" as="sourcePoint" />
            <mxPoint x="1280" y="460" as="targetPoint" />
            <Array as="points">
              <mxPoint x="1720" y="680" />
              <mxPoint x="1720" y="310" />
            </Array>
          </mxGeometry>
        </mxCell>
        <mxCell id="gaqBN02aX4DE-5eGZtPK-20" value="" style="endArrow=none;html=1;rounded=0;fontSize=30;exitX=1;exitY=0.5;exitDx=0;exitDy=0;" edge="1" parent="1" source="gaqBN02aX4DE-5eGZtPK-15">
          <mxGeometry width="50" height="50" relative="1" as="geometry">
            <mxPoint x="1230" y="510" as="sourcePoint" />
            <mxPoint x="1720" y="460" as="targetPoint" />
          </mxGeometry>
        </mxCell>
        <mxCell id="gaqBN02aX4DE-5eGZtPK-21" value="是" style="text;html=1;strokeColor=none;fillColor=none;align=center;verticalAlign=middle;whiteSpace=wrap;rounded=0;fontSize=30;" vertex="1" parent="1">
          <mxGeometry x="1080" y="420" width="60" height="30" as="geometry" />
        </mxCell>
        <mxCell id="gaqBN02aX4DE-5eGZtPK-22" value="" style="endArrow=classic;html=1;rounded=0;fontSize=30;exitX=0.5;exitY=1;exitDx=0;exitDy=0;entryX=0.5;entryY=0;entryDx=0;entryDy=0;" edge="1" parent="1" source="gaqBN02aX4DE-5eGZtPK-1" target="gaqBN02aX4DE-5eGZtPK-16">
          <mxGeometry width="50" height="50" relative="1" as="geometry">
            <mxPoint x="1100" y="520" as="sourcePoint" />
            <mxPoint x="1150" y="470" as="targetPoint" />
          </mxGeometry>
        </mxCell>
        <mxCell id="gaqBN02aX4DE-5eGZtPK-23" value="" style="endArrow=classic;html=1;rounded=0;fontSize=30;exitX=0;exitY=0.5;exitDx=0;exitDy=0;" edge="1" parent="1" source="gaqBN02aX4DE-5eGZtPK-16" target="gaqBN02aX4DE-5eGZtPK-24">
          <mxGeometry width="50" height="50" relative="1" as="geometry">
            <mxPoint x="889.9999999999995" y="220" as="sourcePoint" />
            <mxPoint x="670" y="310" as="targetPoint" />
          </mxGeometry>
        </mxCell>
        <mxCell id="gaqBN02aX4DE-5eGZtPK-24" value="结束" style="rounded=0;whiteSpace=wrap;html=1;fontSize=30;" vertex="1" parent="1">
          <mxGeometry x="530" y="280" width="120" height="60" as="geometry" />
        </mxCell>
        <mxCell id="gaqBN02aX4DE-5eGZtPK-25" value="&lt;font style=&quot;font-size: 30px;&quot;&gt;开始&lt;/font&gt;" style="rounded=0;whiteSpace=wrap;html=1;" vertex="1" parent="1">
          <mxGeometry x="710" y="1240" width="200" height="80" as="geometry" />
        </mxCell>
        <mxCell id="gaqBN02aX4DE-5eGZtPK-26" value="是否命中" style="rhombus;whiteSpace=wrap;html=1;fontSize=30;" vertex="1" parent="1">
          <mxGeometry x="670" y="1530" width="280" height="80" as="geometry" />
        </mxCell>
        <mxCell id="gaqBN02aX4DE-5eGZtPK-27" value="" style="endArrow=classic;html=1;rounded=0;fontSize=30;exitX=0.5;exitY=1;exitDx=0;exitDy=0;" edge="1" parent="1" source="gaqBN02aX4DE-5eGZtPK-26">
          <mxGeometry width="50" height="50" relative="1" as="geometry">
            <mxPoint x="1110" y="1720" as="sourcePoint" />
            <mxPoint x="810" y="1750" as="targetPoint" />
          </mxGeometry>
        </mxCell>
        <mxCell id="gaqBN02aX4DE-5eGZtPK-28" value="否" style="text;html=1;strokeColor=none;fillColor=none;align=center;verticalAlign=middle;whiteSpace=wrap;rounded=0;fontSize=30;" vertex="1" parent="1">
          <mxGeometry x="820" y="1660" width="60" height="30" as="geometry" />
        </mxCell>
        <mxCell id="gaqBN02aX4DE-5eGZtPK-29" value="放入空闲物理块" style="rounded=0;whiteSpace=wrap;html=1;fontSize=30;" vertex="1" parent="1">
          <mxGeometry x="695" y="1970" width="230" height="80" as="geometry" />
        </mxCell>
        <mxCell id="gaqBN02aX4DE-5eGZtPK-30" value="物理块是否满" style="rhombus;whiteSpace=wrap;html=1;fontSize=30;" vertex="1" parent="1">
          <mxGeometry x="670" y="1750" width="280" height="80" as="geometry" />
        </mxCell>
        <mxCell id="gaqBN02aX4DE-5eGZtPK-31" value="" style="endArrow=classic;html=1;rounded=0;fontSize=30;exitX=0.5;exitY=1;exitDx=0;exitDy=0;" edge="1" parent="1">
          <mxGeometry width="50" height="50" relative="1" as="geometry">
            <mxPoint x="810" y="1830" as="sourcePoint" />
            <mxPoint x="810" y="1970" as="targetPoint" />
          </mxGeometry>
        </mxCell>
        <mxCell id="gaqBN02aX4DE-5eGZtPK-32" value="否" style="text;html=1;strokeColor=none;fillColor=none;align=center;verticalAlign=middle;whiteSpace=wrap;rounded=0;fontSize=30;" vertex="1" parent="1">
          <mxGeometry x="820" y="1880" width="60" height="30" as="geometry" />
        </mxCell>
        <mxCell id="gaqBN02aX4DE-5eGZtPK-33" value="查找将来最晚被调用或者不被调用的页面来与新的页面置换" style="rounded=0;whiteSpace=wrap;html=1;fontSize=30;" vertex="1" parent="1">
          <mxGeometry x="1150" y="1715" width="330" height="150" as="geometry" />
        </mxCell>
        <mxCell id="gaqBN02aX4DE-5eGZtPK-34" value="" style="endArrow=classic;html=1;rounded=0;fontSize=30;exitX=1;exitY=0.5;exitDx=0;exitDy=0;entryX=0;entryY=0.5;entryDx=0;entryDy=0;" edge="1" parent="1" source="gaqBN02aX4DE-5eGZtPK-30" target="gaqBN02aX4DE-5eGZtPK-33">
          <mxGeometry width="50" height="50" relative="1" as="geometry">
            <mxPoint x="1110" y="1850" as="sourcePoint" />
            <mxPoint x="1160" y="1800" as="targetPoint" />
          </mxGeometry>
        </mxCell>
        <mxCell id="gaqBN02aX4DE-5eGZtPK-35" value="是" style="text;html=1;strokeColor=none;fillColor=none;align=center;verticalAlign=middle;whiteSpace=wrap;rounded=0;fontSize=30;" vertex="1" parent="1">
          <mxGeometry x="1010" y="1750" width="60" height="30" as="geometry" />
        </mxCell>
        <mxCell id="gaqBN02aX4DE-5eGZtPK-38" value="是否有新页面" style="rhombus;whiteSpace=wrap;html=1;fontSize=30;" vertex="1" parent="1">
          <mxGeometry x="670" y="1380" width="280" height="80" as="geometry" />
        </mxCell>
        <mxCell id="gaqBN02aX4DE-5eGZtPK-39" value="" style="endArrow=classic;html=1;rounded=0;fontSize=30;exitX=0.5;exitY=1;exitDx=0;exitDy=0;" edge="1" parent="1">
          <mxGeometry width="50" height="50" relative="1" as="geometry">
            <mxPoint x="810" y="1460" as="sourcePoint" />
            <mxPoint x="810" y="1530" as="targetPoint" />
          </mxGeometry>
        </mxCell>
        <mxCell id="gaqBN02aX4DE-5eGZtPK-40" value="是" style="text;html=1;strokeColor=none;fillColor=none;align=center;verticalAlign=middle;whiteSpace=wrap;rounded=0;fontSize=30;" vertex="1" parent="1">
          <mxGeometry x="820" y="1480" width="60" height="30" as="geometry" />
        </mxCell>
        <mxCell id="gaqBN02aX4DE-5eGZtPK-41" value="" style="endArrow=classic;html=1;rounded=0;fontSize=30;exitX=1;exitY=0.5;exitDx=0;exitDy=0;entryX=1;entryY=0.5;entryDx=0;entryDy=0;" edge="1" parent="1" source="gaqBN02aX4DE-5eGZtPK-33" target="gaqBN02aX4DE-5eGZtPK-38">
          <mxGeometry width="50" height="50" relative="1" as="geometry">
            <mxPoint x="1160" y="1620" as="sourcePoint" />
            <mxPoint x="1210" y="1570" as="targetPoint" />
            <Array as="points">
              <mxPoint x="1650" y="1790" />
              <mxPoint x="1650" y="1420" />
            </Array>
          </mxGeometry>
        </mxCell>
        <mxCell id="gaqBN02aX4DE-5eGZtPK-42" value="" style="endArrow=none;html=1;rounded=0;fontSize=30;exitX=1;exitY=0.5;exitDx=0;exitDy=0;" edge="1" parent="1" source="gaqBN02aX4DE-5eGZtPK-26">
          <mxGeometry width="50" height="50" relative="1" as="geometry">
            <mxPoint x="1430" y="1570" as="sourcePoint" />
            <mxPoint x="1650" y="1570" as="targetPoint" />
          </mxGeometry>
        </mxCell>
        <mxCell id="gaqBN02aX4DE-5eGZtPK-43" value="是" style="text;html=1;strokeColor=none;fillColor=none;align=center;verticalAlign=middle;whiteSpace=wrap;rounded=0;fontSize=30;" vertex="1" parent="1">
          <mxGeometry x="1010" y="1530" width="60" height="30" as="geometry" />
        </mxCell>
        <mxCell id="gaqBN02aX4DE-5eGZtPK-44" value="" style="endArrow=classic;html=1;rounded=0;fontSize=30;exitX=0.5;exitY=1;exitDx=0;exitDy=0;entryX=0.5;entryY=0;entryDx=0;entryDy=0;" edge="1" parent="1" source="gaqBN02aX4DE-5eGZtPK-25" target="gaqBN02aX4DE-5eGZtPK-38">
          <mxGeometry width="50" height="50" relative="1" as="geometry">
            <mxPoint x="1030" y="1630" as="sourcePoint" />
            <mxPoint x="1080" y="1580" as="targetPoint" />
          </mxGeometry>
        </mxCell>
        <mxCell id="gaqBN02aX4DE-5eGZtPK-45" value="" style="endArrow=classic;html=1;rounded=0;fontSize=30;exitX=0;exitY=0.5;exitDx=0;exitDy=0;" edge="1" parent="1" source="gaqBN02aX4DE-5eGZtPK-38" target="gaqBN02aX4DE-5eGZtPK-46">
          <mxGeometry width="50" height="50" relative="1" as="geometry">
            <mxPoint x="819.9999999999995" y="1330" as="sourcePoint" />
            <mxPoint x="600" y="1420" as="targetPoint" />
          </mxGeometry>
        </mxCell>
        <mxCell id="gaqBN02aX4DE-5eGZtPK-46" value="结束" style="rounded=0;whiteSpace=wrap;html=1;fontSize=30;" vertex="1" parent="1">
          <mxGeometry x="460" y="1390" width="120" height="60" as="geometry" />
        </mxCell>
      </root>
    </mxGraphModel>
  </diagram>
</mxfile>
